<svg width="32" height="32" viewBox="0 0 32 32" fill="none" xmlns="http://www.w3.org/2000/svg">
<path d="M8.25773 14.2041H3.09863V15.2372H8.25773V14.2041Z" fill="black"/>
<path d="M10.8404 17.3035H3.09863V18.3365H10.8404V17.3035Z" fill="black"/>
<path d="M21.6815 20.4026H3.09863V21.4357H21.6815V20.4026Z" fill="black"/>
<path d="M6.19787 23.4954H3.09863V24.5284H6.19787V23.4954Z" fill="black"/>
<path d="M11.358 23.4954H8.25879V24.5284H11.358V23.4954Z" fill="black"/>
<path d="M16.524 23.4954H13.4248V24.5284H16.524V23.4954Z" fill="black"/>
<path d="M21.1645 13.6875C20.7866 13.6875 20.4401 13.7946 20.1378 13.971C19.8228 13.7883 19.47 13.6875 19.0984 13.6875C17.9582 13.6875 17.0322 14.6135 17.0322 15.7537C17.0322 16.8938 17.9582 17.8198 19.0984 17.8198C19.47 17.8198 19.8228 17.719 20.1378 17.5363C20.4401 17.7127 20.7866 17.8198 21.1645 17.8198C22.3047 17.8198 23.2307 16.8938 23.2307 15.7537C23.2307 14.6135 22.3047 13.6875 21.1645 13.6875ZM19.363 16.7489C19.2748 16.7741 19.1866 16.7867 19.0984 16.7867C18.5315 16.7867 18.0653 16.3206 18.0653 15.7537C18.0653 15.1867 18.5315 14.7206 19.0984 14.7206C19.1866 14.7206 19.2811 14.7395 19.363 14.7584C19.1992 15.0544 19.0984 15.3883 19.0984 15.7537C19.0984 16.119 19.1992 16.4529 19.363 16.7489ZM21.1645 16.7867C20.5976 16.7867 20.1315 16.3206 20.1315 15.7537C20.1315 15.1867 20.5976 14.7206 21.1645 14.7206C21.7315 14.7206 22.1976 15.1867 22.1976 15.7537C22.1976 16.3206 21.7315 16.7867 21.1645 16.7867Z" fill="black"/>
<path d="M30.923 11.3L9.2662 4.45899C9.11502 4.4086 7.90556 4.01175 7.32603 5.46688L5.54334 11.1047H1.54962C0.692918 11.111 0 11.8039 0 12.6543V26.0781C0 26.9348 0.692918 27.6277 1.54962 27.6277H24.2647C24.8065 27.6277 25.2789 27.3505 25.5561 26.9285C25.5561 26.9285 26.2553 27.1237 26.4128 27.1237C27.0931 27.1237 27.6852 26.6891 27.8868 26.0403L31.9309 13.2402C32.0569 12.8496 32.1451 11.6276 30.923 11.3ZM7.68509 7.74721L18.3245 11.1047H11.4646L7.06146 9.71258L7.68509 7.74721ZM6.7528 10.7016L8.04415 11.111H6.62682L6.7528 10.7016ZM24.7813 26.0781H24.775C24.775 26.3615 24.5419 26.5946 24.2584 26.5946H1.54962C1.26615 26.5946 1.03308 26.3615 1.03308 26.0781V12.6543C1.03308 12.3709 1.26615 12.1378 1.54962 12.1378H24.2647C24.5482 12.1378 24.7813 12.3709 24.7813 12.6543V26.0781ZM26.9041 25.7316C26.8222 25.9962 26.5199 26.1537 26.2553 26.0655L25.808 25.9269V16.7237L29.3923 17.8575L26.9041 25.7316ZM29.701 16.8685L25.808 15.6402V13.4732L30.3246 14.8969L29.701 16.8685ZM30.9482 12.9315L30.6396 13.9142L25.7828 12.3835C25.6506 11.6591 25.0206 11.111 24.2647 11.111H21.7513L7.99375 6.76452L8.30242 5.78184C8.38431 5.51727 8.68037 5.35979 8.95124 5.44798L30.6081 12.2827C31.0427 12.3961 30.986 12.7992 30.9482 12.9315Z" fill="black"/>
</svg>
