<svg width="74" height="74" viewBox="0 0 74 74" fill="none" xmlns="http://www.w3.org/2000/svg">
<path opacity="0.8" fill-rule="evenodd" clip-rule="evenodd" d="M32.0052 20.4166V18.5C32.0052 15.7386 34.2438 13.5 37.0052 13.5C39.7666 13.5 42.0052 15.7386 42.0052 18.5V20.4166H32.0052ZM24.6719 21.5833V20.4166V18.5C24.6719 11.6885 30.1937 6.16664 37.0052 6.16664C43.8167 6.16664 49.3385 11.6885 49.3385 18.5V20.4166V21.5833H55.9892C57.889 21.5833 59.4742 23.0344 59.6416 24.9268L62.6514 58.9472C63.2206 65.3798 58.152 70.9166 51.6942 70.9166H22.3094C15.8517 70.9166 10.7831 65.3798 11.3522 58.9472L14.3621 24.9268C14.5295 23.0344 16.1147 21.5833 18.0145 21.5833H24.6719ZM18.657 59.5935L21.3711 28.9166H52.6326L55.3466 59.5935C55.5364 61.7377 53.8468 63.5833 51.6942 63.5833H22.3094C20.1569 63.5833 18.4673 61.7377 18.657 59.5935Z" fill="#CACACA"/>
</svg>
