<svg width="40" height="22" viewBox="0 0 40 22" fill="none" xmlns="http://www.w3.org/2000/svg">
<rect x="0.5" y="0.5" width="39" height="20.4634" rx="3.5" stroke="#707070"/>
<path d="M19.5063 10.6199V13.4796H18.5928V6.41747H21.0156C21.3048 6.41147 21.5923 6.4624 21.8616 6.56734C22.1309 6.67227 22.3766 6.82912 22.5845 7.02884C22.7945 7.21644 22.9616 7.4465 23.0747 7.70357C23.1877 7.96064 23.244 8.23877 23.2398 8.51925C23.2459 8.80123 23.1904 9.08117 23.0773 9.33988C22.9642 9.59859 22.7961 9.82995 22.5845 10.0181C22.1608 10.4193 21.6379 10.6197 21.0156 10.6193H19.5063V10.6199ZM19.5063 7.28692V9.75215H21.0383C21.2063 9.75709 21.3734 9.72717 21.529 9.66429C21.6847 9.60142 21.8254 9.50698 21.9422 9.38701C22.0584 9.27484 22.1507 9.14068 22.2138 8.99245C22.2768 8.84423 22.3093 8.68495 22.3093 8.52404C22.3093 8.36313 22.2768 8.20385 22.2138 8.05562C22.1507 7.9074 22.0584 7.77324 21.9422 7.66107C21.8269 7.53857 21.6866 7.44182 21.5308 7.37721C21.375 7.31261 21.2071 7.28164 21.0383 7.28635H19.5063V7.28692Z" fill="#5F6368"/>
<path d="M25.342 8.4895C26.0172 8.4895 26.5502 8.66869 26.9409 9.02706C27.3317 9.38544 27.5269 9.87679 27.5265 10.5011V13.4791H26.6527V12.8086H26.613C26.2347 13.3608 25.7316 13.6369 25.1037 13.6369C24.5677 13.6369 24.1192 13.4791 23.7584 13.1636C23.5852 13.0187 23.4467 12.8374 23.3531 12.6327C23.2594 12.4279 23.213 12.2051 23.217 11.9803C23.217 11.4803 23.4073 11.0826 23.7879 10.7874C24.1684 10.4921 24.6764 10.3441 25.3119 10.3434C25.8544 10.3434 26.3011 10.442 26.6521 10.6392V10.4318C26.6532 10.2786 26.6198 10.127 26.5546 9.98812C26.4893 9.84923 26.3937 9.72651 26.2748 9.62886C26.0332 9.41241 25.7184 9.29431 25.3931 9.2981C24.8828 9.2981 24.479 9.51184 24.1816 9.93934L23.3771 9.43615C23.8196 8.80505 24.4746 8.4895 25.342 8.4895ZM24.1601 12C24.1595 12.1154 24.1866 12.2294 24.2393 12.3323C24.2921 12.4352 24.3688 12.5241 24.4631 12.5916C24.6651 12.7495 24.9159 12.8331 25.1729 12.8283C25.5584 12.8277 25.9279 12.6753 26.2005 12.4046C26.5031 12.1217 26.6544 11.7898 26.6544 11.4089C26.3696 11.1835 25.9724 11.0708 25.4628 11.0708C25.0918 11.0708 24.7823 11.1596 24.5346 11.3373C24.2843 11.5176 24.1601 11.7368 24.1601 12Z" fill="#5F6368"/>
<path d="M32.542 8.64795L29.4916 15.6097H28.5486L29.6806 13.1738L27.6748 8.64795H28.6678L30.1175 12.119H30.1374L31.5474 8.64795H32.542Z" fill="#5F6368"/>
<path d="M15.8117 10.0034C15.8121 9.72693 15.7885 9.45094 15.7414 9.17847H11.8887V10.741H14.0953C14.0502 10.9906 13.9546 11.2285 13.8144 11.4403C13.6741 11.6522 13.4922 11.8337 13.2794 11.9739V12.9882H14.5963C15.3674 12.2821 15.8117 11.238 15.8117 10.0034Z" fill="#4285F4"/>
<path d="M11.8894 13.9683C12.9919 13.9683 13.9201 13.6088 14.5971 12.989L13.2801 11.9747C12.9136 12.2215 12.4415 12.3624 11.8894 12.3624C10.8238 12.3624 9.91935 11.649 9.59593 10.6877H8.23926V11.733C8.57929 12.4049 9.10068 12.9698 9.74524 13.3645C10.3898 13.7592 11.1321 13.9683 11.8894 13.9683Z" fill="#34A853"/>
<path d="M9.59637 10.6871C9.42539 10.1834 9.42539 9.63785 9.59637 9.13412V8.08887H8.2397C7.95366 8.65413 7.80469 9.27798 7.80469 9.9106C7.80469 10.5432 7.95366 11.1671 8.2397 11.7323L9.59637 10.6871Z" fill="#FBBC04"/>
<path d="M11.8894 7.45995C12.472 7.45049 13.035 7.6691 13.4566 8.06851L14.6226 6.91055C13.8832 6.22089 12.9037 5.84226 11.8894 5.85403C11.1321 5.85406 10.3898 6.06311 9.74524 6.45783C9.10068 6.85255 8.57929 7.41742 8.23926 8.08935L9.59593 9.13461C9.91935 8.17331 10.8238 7.45995 11.8894 7.45995Z" fill="#EA4335"/>
</svg>
