<svg width="20" height="18" viewBox="0 0 20 18" fill="none" xmlns="http://www.w3.org/2000/svg">
<path d="M10 18.0011C9.355 17.4291 8.626 16.8341 7.85502 16.2011H7.84502C5.13002 13.9811 2.05302 11.4691 0.694021 8.45912C0.247541 7.50082 0.0109314 6.45824 1.13924e-05 5.40112C-0.00296861 3.9506 0.578791 2.5601 1.61383 1.54388C2.64887 0.527665 4.04981 -0.0284854 5.50002 0.00112462C6.68065 0.00298462 7.83586 0.344205 8.828 0.984125C9.264 1.26708 9.6584 1.60937 10 2.00112C10.3435 1.61091 10.7381 1.26882 11.173 0.984125C12.1648 0.344075 13.3197 0.00283462 14.5 0.00112462C15.9502 -0.0284854 17.3512 0.527665 18.3862 1.54388C19.4213 2.5601 20.003 3.9506 20 5.40112C19.9898 6.45993 19.7532 7.50432 19.306 8.46412C17.947 11.4741 14.871 13.9851 12.156 16.2011L12.146 16.2091C11.374 16.8381 10.646 17.4331 10.001 18.0091L10 18.0011ZM5.50002 2.00112C4.56853 1.98946 3.6701 2.34596 3.00002 2.99312C2.35441 3.62728 1.99358 4.49616 1.99994 5.40112C2.01135 6.17162 2.18585 6.93098 2.51202 7.62913C3.15353 8.92783 4.01913 10.1031 5.06902 11.1011C6.06002 12.1011 7.20002 13.0691 8.186 13.8831C8.459 14.1081 8.737 14.3351 9.015 14.5621L9.19 14.7051C9.457 14.9231 9.733 15.1491 10 15.3711L10.013 15.3591L10.019 15.3541H10.025L10.034 15.3471H10.039H10.044L10.062 15.3321L10.103 15.2991L10.11 15.2931L10.121 15.2851H10.127L10.136 15.2771L10.8 14.7321L10.974 14.5891C11.255 14.3601 11.533 14.1331 11.806 13.9081C12.792 13.0941 13.933 12.1271 14.924 11.1221C15.9741 10.1247 16.8397 8.94962 17.481 7.65112C17.8131 6.94692 17.9901 6.17962 18.0001 5.40112C18.0042 4.49895 17.6435 3.63341 17 3.00112C16.3312 2.35104 15.4326 1.9916 14.5 2.00112C13.3619 1.99144 12.274 2.46848 11.51 3.31212L10 5.05212L8.49 3.31212C7.72609 2.46848 6.6381 1.99144 5.50002 2.00112Z" fill="white"/>
<ellipse cx="10" cy="9.5" rx="6" ry="6.5" fill="white"/>
<ellipse cx="14" cy="6.5" rx="5" ry="5.5" fill="white"/>
<ellipse cx="6" cy="6.5" rx="5" ry="5.5" fill="white"/>
</svg>
